# xmcd
#
# Track frame offsets:
#	150
#	19354
#	35163
#	52418
#	67623
#	85263
#	105245
#	122944
#	145939
#	162760
#	178800
#	195230
#	213938
#	230551
#	247492
#	268128
#	290559
#	307067
#	322661
#	337880
#
# Disc length: 4733 seconds
#
# Revision: 0
# Processed by: cddbd v1.5.2PL0 Copyright (c) Steve Scherf et al.
# Submitted via: EasyCDDAExtractor 16.0.9.1
#
DISCID=2c127b14
DTITLE=Various Artist - Bravo Dance Generation Vol.11
DYEAR=2001
DGENRE=Dance, Pop
TTITLE0=Gigi D'agostino - L'amour Toujours
TTITLE1=Alicia Keys - Fallin
TTITLE2=Kylie Minogue - Can't Get You Out Of My
TTITLE3=Roger Sancez - Another Cance
TTITLE4=Brayn Storm - Maybe
TTITLE5=Alizee - Moi...Lolita
TTITLE6=Jennifer Lopez - Ain't It Funny
TTITLE7=Michael Jackson - You Rock My World
TTITLE8=Enrique Iglesias - Hero
TTITLE9=Bomfunk Mc's - Super Electric
TTITLE10=Sarah Connor - French Kisses
TTITLE11=Backstreet Boys - Drowning
TTITLE12=Sash! - Stand By Me
TTITLE13=Destiny's Child - Emotion
TTITLE14=Nelly Furtado - Turn Of The Light
TTITLE15=Mellow Trax and Shaft - Sway
TTITLE16=Enya - Only Time
TTITLE17=Shaggy - Luv Me, Luv Me
TTITLE18=Sasha - Here She Comes Again
TTITLE19=Santana - Primavera
EXTD=
EXTT0=
EXTT1=
EXTT2=
EXTT3=
EXTT4=
EXTT5=
EXTT6=
EXTT7=
EXTT8=
EXTT9=
EXTT10=
EXTT11=
EXTT12=
EXTT13=
EXTT14=
EXTT15=
EXTT16=
EXTT17=
EXTT18=
EXTT19=
PLAYORDER=
